# xmcd
#
# Track frame offsets: 
#        150
#        24848
#        43914
#        90929
#        125672
#        151643
#        167966
#        204080
#        238002
#        265888
#        278281
#        342399
#
# Disc length: 4770 seconds
#
# Revision: 1
# Processed by: cddbd v1.5.1PL0 Copyright (c) Steve Scherf et al.
# Submitted via: ExactAudioCopy v0.90b4
#
DISCID=9312a00c
DTITLE=Terence Blanchard - Flow
DYEAR=2004
DGENRE=Jazz
TTITLE0=Flow, Part I
TTITLE1=Wadagbe (Intro)
TTITLE2=Wadagbe
TTITLE3=Benny's Tune
TTITLE4=Wandering Wonder
TTITLE5=Flow, Part II
TTITLE6=The Source
TTITLE7=Over There
TTITLE8=Child's Play
TTITLE9=Flow, Part III
TTITLE10=Harvesting Dance
TTITLE11=Data
EXTD=YEAR: 2004
EXTT0=
EXTT1=
EXTT2=
EXTT3=
EXTT4=
EXTT5=
EXTT6=
EXTT7=
EXTT8=
EXTT9=
EXTT10=
EXTT11=
PLAYORDER=
